<svg width="24" height="24" viewBox="0 0 24 24" fill="none" xmlns="http://www.w3.org/2000/svg">
<mask id="mask0_12_545" style="mask-type:luminance" maskUnits="userSpaceOnUse" x="0" y="0" width="24" height="24">
<path fill-rule="evenodd" clip-rule="evenodd" d="M0 0H24V24H0V0Z" fill="white"/>
</mask>
<g mask="url(#mask0_12_545)">
<path fill-rule="evenodd" clip-rule="evenodd" d="M3.52652 5.376L3.43052 5.18325C3.38679 5.09478 3.32586 5.01592 3.2513 4.95128C3.17674 4.88663 3.09004 4.8375 2.99627 4.80675C2.90292 4.77532 2.80424 4.76279 2.706 4.76987C2.60775 4.77695 2.5119 4.80351 2.42402 4.848C2.33496 4.89068 2.2556 4.95117 2.19084 5.02573C2.12608 5.10029 2.0773 5.18734 2.04752 5.2815C2.01498 5.37465 2.00186 5.47348 2.00895 5.57189C2.01605 5.67031 2.04321 5.76623 2.08877 5.85375L3.07877 7.83525C3.1225 7.92371 3.18343 8.00257 3.25799 8.06722C3.33255 8.13187 3.41925 8.181 3.51302 8.21175C3.62121 8.24822 3.73636 8.25928 3.84951 8.24406C3.96267 8.22885 4.0708 8.18776 4.16552 8.124L8.66552 5.124C8.74791 5.06975 8.81866 4.99963 8.87365 4.91773C8.92864 4.83583 8.96675 4.74379 8.98577 4.647C9.00532 4.55051 9.00552 4.4511 8.98633 4.35454C8.96715 4.25797 8.92897 4.16619 8.87402 4.0845C8.82062 4.00136 8.75074 3.93004 8.6687 3.87496C8.58665 3.81988 8.49419 3.7822 8.39702 3.76425C8.30059 3.74353 8.20095 3.74275 8.10421 3.76197C8.00748 3.78118 7.9157 3.81999 7.83452 3.876L6.37577 4.84725L4.04102 6.405L3.52652 5.376ZM12 4.5C11.793 4.5 11.616 4.5735 11.4698 4.71975C11.3235 4.866 11.25 5.04225 11.25 5.25C11.25 5.45775 11.3235 5.634 11.4698 5.78025C11.5385 5.85114 11.621 5.90721 11.7122 5.945C11.8033 5.98279 11.9013 6.00151 12 6H22.5C22.5987 6.00151 22.6967 5.98279 22.7879 5.945C22.8791 5.90721 22.9616 5.85114 23.0303 5.78025C23.1765 5.634 23.25 5.45775 23.25 5.25C23.25 5.04225 23.1765 4.866 23.0303 4.71975C22.884 4.5735 22.7078 4.5 22.5 4.5H12ZM3.54227 11.376L3.44552 11.1833C3.40272 11.0944 3.34218 11.0152 3.26763 10.9505C3.19308 10.8859 3.10609 10.8372 3.01202 10.8075C2.91893 10.7748 2.82012 10.7615 2.7217 10.7685C2.62328 10.7755 2.52733 10.8025 2.43977 10.848C2.35138 10.8916 2.27256 10.9525 2.20792 11.0269C2.14328 11.1013 2.09411 11.1879 2.06327 11.2815C2.03184 11.3749 2.01931 11.4735 2.02639 11.5718C2.03347 11.67 2.06003 11.7659 2.10452 11.8538L3.09452 13.8353C3.13728 13.9244 3.19789 14.0038 3.27258 14.0686C3.34728 14.1333 3.43447 14.1821 3.52877 14.2118C3.63671 14.2498 3.75215 14.2617 3.86559 14.2465C3.97902 14.2312 4.08722 14.1892 4.18127 14.124L8.68127 11.124C8.76427 11.0705 8.83545 11.0006 8.8904 10.9186C8.94534 10.8365 8.98291 10.7441 9.00077 10.647C9.0216 10.5506 9.0225 10.451 9.00341 10.3543C8.98432 10.2575 8.94565 10.1657 8.88977 10.0845C8.8364 10.0013 8.76653 9.92999 8.68448 9.8749C8.60244 9.81982 8.50996 9.78216 8.41277 9.76425C8.31634 9.74353 8.2167 9.74275 8.11996 9.76197C8.02323 9.78119 7.93145 9.81999 7.85027 9.876L4.05602 12.405L3.54227 11.376ZM12 11.25C11.793 11.25 11.616 11.3235 11.4698 11.4698C11.3235 11.616 11.25 11.7923 11.25 12C11.25 12.2078 11.3235 12.384 11.4698 12.5303C11.616 12.6765 11.7923 12.75 12 12.75H22.5C22.707 12.75 22.884 12.6765 23.0303 12.5303C23.1765 12.384 23.25 12.2078 23.25 12C23.25 11.7923 23.1765 11.616 23.0303 11.4698C22.884 11.3235 22.7078 11.25 22.5 11.25H12ZM3.54227 17.376L3.44552 17.1832C3.40276 17.0943 3.34223 17.0151 3.26768 16.9505C3.19312 16.8859 3.10611 16.8372 3.01202 16.8075C2.91893 16.7748 2.82012 16.7615 2.7217 16.7685C2.62328 16.7755 2.52733 16.8025 2.43977 16.848C2.35138 16.8916 2.27256 16.9525 2.20792 17.0269C2.14328 17.1013 2.09411 17.1879 2.06327 17.2815C2.03184 17.3749 2.01931 17.4735 2.02639 17.5718C2.03347 17.67 2.06003 17.7659 2.10452 17.8538L3.09452 19.8353C3.13728 19.9244 3.19789 20.0038 3.27258 20.0686C3.34728 20.1333 3.43447 20.1821 3.52877 20.2118C3.63671 20.2498 3.75215 20.2617 3.86559 20.2465C3.97902 20.2312 4.08722 20.1892 4.18127 20.124L8.68127 17.124C8.76352 17.0697 8.83413 16.9995 8.88899 16.9176C8.94384 16.8357 8.98184 16.7437 9.00077 16.647C9.02043 16.5506 9.02075 16.4512 9.00169 16.3546C8.98264 16.2581 8.94459 16.1662 8.88977 16.0845C8.8364 16.0013 8.76653 15.93 8.68448 15.8749C8.60244 15.8198 8.50996 15.7822 8.41277 15.7642C8.31634 15.7435 8.2167 15.7427 8.11996 15.762C8.02323 15.7812 7.93145 15.82 7.85027 15.876L6.39227 16.8472L4.05677 18.405L3.54227 17.376ZM12 18C11.793 18 11.616 18.0735 11.4698 18.2197C11.3235 18.366 11.25 18.5423 11.25 18.75C11.25 18.9578 11.3235 19.134 11.4698 19.2803C11.616 19.4265 11.7923 19.5 12 19.5H22.5C22.707 19.5 22.884 19.4265 23.0303 19.2803C23.1765 19.134 23.25 18.9578 23.25 18.75C23.25 18.5423 23.1765 18.366 23.0303 18.2197C22.884 18.0735 22.7078 18 22.5 18H12Z" fill="black"/>
</g>
</svg>
