<svg width="24" height="24" viewBox="0 0 24 24" fill="none" xmlns="http://www.w3.org/2000/svg">
<path d="M22.8926 17.85C22.7562 17.4911 22.5016 17.1894 22.1707 16.9945C21.8399 16.7996 21.4526 16.7231 21.0725 16.7777L15.9802 17.5319C16.0234 17.1627 15.94 16.7899 15.7436 16.4743C15.5473 16.1587 15.2497 15.9191 14.8994 15.7947L10.7083 14.4216C9.98174 14.1854 9.19876 14.1874 8.47342 14.4272L5.46405 15.4304C5.39093 15.0963 5.20596 14.7972 4.93973 14.5826C4.6735 14.3679 4.34198 14.2506 4 14.25H2.5C2.10231 14.2504 1.72103 14.4086 1.43982 14.6898C1.15861 14.971 1.00043 15.3523 1 15.75V21.25C1.00043 21.6477 1.15861 22.029 1.43982 22.3102C1.72103 22.5914 2.10231 22.7496 2.5 22.75H4C4.32763 22.7489 4.64587 22.6404 4.90595 22.4412C5.16604 22.242 5.35362 21.9629 5.43995 21.6469L7.57009 21.2919C7.83812 21.2468 8.11354 21.2882 8.35647 21.4101L10.7842 22.6242C11.2021 22.8344 11.6576 22.9597 12.1242 22.9929C12.5909 23.0261 13.0595 22.9665 13.503 22.8175L21.8504 20.0348C22.0648 19.9634 22.2625 19.8494 22.4319 19.6998C22.6012 19.5502 22.7387 19.3679 22.836 19.164C22.9332 18.96 22.9884 18.7385 22.9981 18.5128C23.0079 18.287 22.972 18.0616 22.8926 17.85ZM4.50002 21.25C4.49984 21.3825 4.44711 21.5096 4.35337 21.6034C4.25964 21.6971 4.13256 21.7498 4 21.75H2.5C2.36744 21.7498 2.24036 21.6971 2.14663 21.6034C2.05289 21.5096 2.00016 21.3825 1.99998 21.25V15.75C2.00016 15.6174 2.05289 15.4904 2.14663 15.3966C2.24036 15.3029 2.36744 15.2502 2.5 15.25H4C4.13256 15.2502 4.25964 15.3029 4.35337 15.3966C4.44711 15.4904 4.49984 15.6174 4.50002 15.75V21.25ZM21.9333 18.7331C21.8942 18.816 21.8386 18.89 21.7699 18.9506C21.7013 19.0113 21.621 19.0573 21.5339 19.0859L13.1868 21.8686C12.8679 21.9759 12.5308 22.0189 12.1952 21.995C11.8595 21.9711 11.532 21.8809 11.2315 21.7295L8.8037 20.5154C8.37194 20.2984 7.8822 20.2249 7.40575 20.3055L5.5 20.623V16.4725L8.78978 15.3759C9.31127 15.2032 9.87433 15.2017 10.3967 15.3718L14.5728 16.7397C14.7246 16.7948 14.8501 16.9049 14.9246 17.0482C14.9991 17.1916 15.017 17.3576 14.9748 17.5135C14.9326 17.6694 14.8333 17.8038 14.6968 17.89C14.5602 17.9762 14.3962 18.0079 14.2373 17.979L9.68069 17.1506C9.5507 17.1281 9.41706 17.1578 9.3089 17.2334C9.20074 17.3089 9.12682 17.4241 9.10324 17.5539C9.07967 17.6837 9.10835 17.8176 9.18304 17.9264C9.25774 18.0351 9.37238 18.1099 9.502 18.1345L14.0583 18.9629C14.2878 19.0049 14.5237 18.9971 14.75 18.9403C14.9763 18.8834 15.1879 18.7787 15.3703 18.6332L21.2189 17.7669C21.3729 17.7444 21.53 17.7753 21.664 17.8542C21.7981 17.9332 21.9012 18.0557 21.9562 18.2012C21.9887 18.2868 22.0035 18.3781 21.9995 18.4696C21.9956 18.561 21.9731 18.6507 21.9333 18.7331ZM12.1253 8.37342C12.19 8.39808 12.2491 8.4203 12.2981 8.44191C12.3697 8.47327 12.4519 8.505 12.5403 8.53885C13.0311 8.72635 13.2501 8.85 13.2501 9.08728C13.2501 9.19116 13.1392 9.35241 12.9276 9.45961C12.7776 9.53541 12.2362 9.74307 11.5462 9.23597C11.4394 9.15743 11.3057 9.12455 11.1746 9.14456C11.0435 9.16458 10.9258 9.23584 10.8472 9.34268C10.7687 9.44952 10.7358 9.58319 10.7558 9.71427C10.7758 9.84536 10.8471 9.96312 10.954 10.0417C11.2645 10.2732 11.6213 10.4351 12 10.5162V11C12.0013 11.1317 12.0545 11.2577 12.1482 11.3504C12.2418 11.4431 12.3682 11.4951 12.5 11.4951C12.6318 11.4951 12.7582 11.4431 12.8519 11.3504C12.9455 11.2577 12.9987 11.1317 13 11V10.49C13.1306 10.4569 13.2576 10.4106 13.3789 10.3519C13.9163 10.0801 14.25 9.59532 14.25 9.08728C14.25 8.12166 13.3699 7.78528 12.897 7.60463C12.8259 7.57739 12.7593 7.55227 12.7019 7.527C12.6389 7.49916 12.5635 7.47024 12.4803 7.43864C12.0068 7.25883 11.75 7.11675 11.75 6.88153C11.75 6.77766 11.8609 6.61641 12.0725 6.50921C12.2225 6.43341 12.7639 6.22575 13.4539 6.73285C13.5608 6.81039 13.694 6.8425 13.8245 6.82217C13.955 6.80183 14.0721 6.7307 14.1503 6.6243C14.2285 6.5179 14.2615 6.38488 14.242 6.25428C14.2225 6.12367 14.1521 6.00609 14.0462 5.92721C13.7356 5.69566 13.3788 5.5338 13 5.45269V5.00007C13.0006 4.934 12.9882 4.86846 12.9633 4.80724C12.9385 4.74601 12.9018 4.69032 12.8553 4.64338C12.8088 4.59643 12.7535 4.55917 12.6925 4.53373C12.6315 4.5083 12.5661 4.49521 12.5 4.49521C12.4339 4.49521 12.3685 4.5083 12.3075 4.53373C12.2466 4.55917 12.1912 4.59643 12.1447 4.64338C12.0982 4.69032 12.0615 4.74601 12.0367 4.80724C12.0118 4.86846 11.9994 4.934 12 5.00007V5.47627C11.8693 5.51023 11.7423 5.55734 11.6211 5.61689C11.0838 5.88877 10.75 6.37336 10.75 6.88153C10.75 7.85119 11.6787 8.20397 12.1253 8.37342Z" fill="black"/>
<path d="M12.5 13.5C13.5878 13.5 14.6511 13.1774 15.5556 12.5731C16.4601 11.9687 17.165 11.1097 17.5813 10.1047C17.9975 9.09974 18.1065 7.99388 17.8942 6.92699C17.682 5.8601 17.1582 4.8801 16.389 4.11092C15.6198 3.34174 14.6398 2.81792 13.5729 2.6057C12.506 2.39349 11.4002 2.50241 10.3952 2.91869C9.39019 3.33498 8.53121 4.03992 7.92686 4.94439C7.32252 5.84886 6.99995 6.91222 6.99995 8.00001C7.0016 9.4582 7.5816 10.8562 8.6127 11.8873C9.6438 12.9184 11.0418 13.4984 12.5 13.5ZM12.5 3.50001C13.39 3.50001 14.26 3.76393 15 4.2584C15.7401 4.75286 16.3168 5.45567 16.6574 6.27794C16.998 7.1002 17.0872 8.005 16.9135 8.87792C16.7399 9.75083 16.3113 10.5527 15.682 11.182C15.0526 11.8113 14.2508 12.2399 13.3779 12.4135C12.505 12.5872 11.6002 12.4981 10.7779 12.1575C9.95564 11.8169 9.25284 11.2401 8.75837 10.5001C8.2639 9.76006 7.99998 8.89003 7.99998 8.00001C8.00135 6.80696 8.47589 5.66316 9.31951 4.81954C10.1631 3.97592 11.3069 3.50138 12.5 3.50001ZM20.1465 15.3535C20.1929 15.4 20.248 15.4368 20.3087 15.4619C20.3693 15.4871 20.4343 15.5 20.5 15.5C20.5656 15.5 20.6306 15.4871 20.6913 15.4619C20.752 15.4368 20.8071 15.4 20.8535 15.3535L22.3535 13.8535C22.4455 13.7594 22.4966 13.6328 22.4959 13.5012C22.4951 13.3696 22.4425 13.2436 22.3494 13.1506C22.2564 13.0575 22.1304 13.0049 21.9988 13.0041C21.8672 13.0034 21.7406 13.0545 21.6465 13.1465L21 13.793V9C21.0006 8.93393 20.9881 8.86839 20.9633 8.80717C20.9385 8.74594 20.9017 8.69025 20.8552 8.64331C20.8088 8.59636 20.7534 8.5591 20.6924 8.53367C20.6315 8.50823 20.566 8.49514 20.5 8.49514C20.4339 8.49514 20.3685 8.50823 20.3075 8.53367C20.2465 8.5591 20.1912 8.59636 20.1447 8.64331C20.0982 8.69025 20.0615 8.74594 20.0366 8.80717C20.0118 8.86839 19.9993 8.93393 20 9V13.793L19.3535 13.1465C19.3073 13.0992 19.2521 13.0615 19.1912 13.0357C19.1303 13.0098 19.0649 12.9963 18.9988 12.9959C18.9326 12.9956 18.8671 13.0083 18.8059 13.0334C18.7447 13.0586 18.6891 13.0956 18.6424 13.1424C18.5956 13.1891 18.5586 13.2447 18.5334 13.3059C18.5083 13.3671 18.4956 13.4326 18.4959 13.4988C18.4963 13.5649 18.5098 13.6303 18.5357 13.6912C18.5615 13.7521 18.5992 13.8073 18.6465 13.8535L20.1465 15.3535ZM19.5 5.00001C19.6326 5.00001 19.7598 4.94733 19.8535 4.85356C19.9473 4.75979 20 4.63261 20 4.5V1.5C19.9987 1.36823 19.9455 1.24229 19.8518 1.14957C19.7582 1.05684 19.6318 1.00482 19.5 1.00482C19.3682 1.00482 19.2418 1.05684 19.1481 1.14957C19.0545 1.24229 19.0013 1.36823 19 1.5V4.5C19 4.6326 19.0527 4.75977 19.1464 4.85354C19.2402 4.94731 19.3674 5 19.5 5.00001ZM21.5 6.99998C21.6326 6.99998 21.7598 6.9473 21.8535 6.85353C21.9473 6.75976 22 6.63258 22 6.49996V3.49996C22.0006 3.4339 21.9882 3.36836 21.9633 3.30714C21.9385 3.24591 21.9018 3.19022 21.8553 3.14328C21.8088 3.09633 21.7535 3.05907 21.6925 3.03363C21.6315 3.0082 21.5661 2.99511 21.5 2.99511C21.4339 2.99511 21.3685 3.0082 21.3075 3.03363C21.2466 3.05907 21.1912 3.09633 21.1447 3.14328C21.0982 3.19022 21.0615 3.24591 21.0367 3.30714C21.0118 3.36836 20.9994 3.4339 21 3.49996V6.49996C21 6.63257 21.0527 6.75974 21.1465 6.85351C21.2402 6.94728 21.3674 6.99997 21.5 6.99998ZM4.99998 6C5.1326 6 5.25978 5.94732 5.35355 5.85355C5.44732 5.75977 5.5 5.63259 5.5 5.49998V2.49998C5.50064 2.43391 5.48818 2.36837 5.46334 2.30715C5.4385 2.24593 5.40177 2.19024 5.35528 2.14329C5.30879 2.09635 5.25345 2.05908 5.19247 2.03365C5.13149 2.00822 5.06608 1.99512 5.00001 1.99512C4.93394 1.99512 4.86852 2.00822 4.80754 2.03365C4.74656 2.05908 4.69123 2.09635 4.64474 2.14329C4.59824 2.19024 4.56152 2.24593 4.53668 2.30715C4.51184 2.36837 4.49938 2.43391 4.50002 2.49998V5.49998C4.50002 5.63259 4.55269 5.75976 4.64645 5.85353C4.74021 5.9473 4.86738 5.99998 4.99998 6ZM2.99997 9C3.13258 9 3.25976 8.94732 3.35353 8.85354C3.4473 8.75977 3.49998 8.63259 3.49998 8.49998V5.49998C3.49871 5.36821 3.44547 5.24228 3.35184 5.14955C3.25821 5.05682 3.13177 5.00481 2.99999 5.00481C2.86822 5.00481 2.74177 5.05682 2.64814 5.14955C2.55452 5.24228 2.50128 5.36821 2.5 5.49998V8.49998C2.5 8.63258 2.55267 8.75976 2.64643 8.85353C2.7402 8.9473 2.86736 8.99998 2.99997 9Z" fill="black"/>
</svg>
