<svg width="52" height="52" viewBox="0 0 52 52" fill="none" xmlns="http://www.w3.org/2000/svg">
<g filter="url(#filter0_d_1_104)">
<circle cx="25.7778" cy="25.7778" r="22.5" fill="#FAFAFA"/>
</g>
<path d="M27.507 15.8711C27.3359 15.6799 27.1263 15.5269 26.892 15.4223C26.6577 15.3177 26.4039 15.2638 26.1472 15.2641H25.2367C24.9779 15.2622 24.7218 15.3155 24.4853 15.4204C24.2488 15.5252 24.0373 15.6793 23.865 15.8723C23.6927 16.0653 23.5635 16.2927 23.486 16.5396C23.4085 16.7864 23.3845 17.0469 23.4155 17.3038L23.7008 19.6652C23.7187 19.8132 23.7905 19.9495 23.9025 20.0481C24.0144 20.1466 24.1587 20.2005 24.3079 20.1994H27.0639C27.213 20.2005 27.3573 20.1466 27.4693 20.0481C27.5812 19.9495 27.653 19.8132 27.6709 19.6652L27.9562 17.3038C27.9875 17.0468 27.9636 16.786 27.8861 16.539C27.8087 16.292 27.6794 16.0643 27.507 15.8711Z" fill="#8A8A8A"/>
<path d="M25.686 18.9062C22.305 18.9062 19.0625 20.2493 16.6718 22.64C14.2811 25.0307 12.938 28.2732 12.938 31.6542V33.4753C12.938 33.6363 13.0019 33.7907 13.1158 33.9046C13.2296 34.0184 13.384 34.0824 13.545 34.0824H37.8269C37.9879 34.0824 38.1423 34.0184 38.2562 33.9046C38.37 33.7907 38.434 33.6363 38.434 33.4753V31.6542C38.434 28.2732 37.0909 25.0307 34.7002 22.64C32.3095 20.2493 29.067 18.9062 25.686 18.9062Z" fill="#BCBCBC"/>
<path d="M26.5601 18.9489C29.003 20.0091 31.0832 21.7595 32.5455 23.9853C34.0077 26.211 34.7884 28.8152 34.7916 31.4783V33.433C34.7916 33.6053 34.7232 33.7705 34.6014 33.8923C34.4796 34.0141 34.3144 34.0826 34.1421 34.0826H37.8269C37.9879 34.0826 38.1423 34.0186 38.2561 33.9048C38.37 33.7909 38.4339 33.6365 38.4339 33.4755V31.6544C38.4308 28.4269 37.2035 25.3207 34.9998 22.9626C32.7961 20.6046 29.78 19.1702 26.5601 18.9489Z" fill="#AAAAAA"/>
<path d="M40.5586 32.8683H10.8132C10.6926 32.8676 10.5746 32.9029 10.4741 32.9695C10.3736 33.0362 10.2953 33.1312 10.249 33.2426C10.2028 33.354 10.1908 33.4766 10.2145 33.5948C10.2382 33.713 10.2966 33.8215 10.3822 33.9064L12.8104 36.3346C12.8671 36.3908 12.9344 36.4354 13.0084 36.4656C13.0823 36.4958 13.1615 36.5111 13.2414 36.5106H38.1304C38.2103 36.5111 38.2894 36.4958 38.3634 36.4656C38.4374 36.4354 38.5046 36.3908 38.5614 36.3346L40.9896 33.9064C41.0752 33.8215 41.1336 33.713 41.1573 33.5948C41.181 33.4766 41.169 33.354 41.1227 33.2426C41.0765 33.1312 40.9981 33.0362 40.8977 32.9695C40.7972 32.9029 40.6791 32.8676 40.5586 32.8683Z" fill="#8A8A8A"/>
<path d="M12.8104 36.3343C12.8671 36.3905 12.9344 36.4351 13.0084 36.4653C13.0823 36.4955 13.1615 36.5108 13.2414 36.5103H38.1304C38.2103 36.5108 38.2894 36.4955 38.3634 36.4653C38.4374 36.4351 38.5046 36.3905 38.5614 36.3343L40.9896 33.9061C41.0752 33.8212 41.1336 33.7127 41.1573 33.5945C41.181 33.4763 41.169 33.3537 41.1227 33.2423C41.0765 33.1309 40.9981 33.0359 40.8977 32.9692C40.7972 32.9026 40.6791 32.8673 40.5586 32.868H38.4339V31.6539C38.4299 28.6305 37.3514 25.7069 35.391 23.4051C33.4306 21.1033 30.7159 19.5732 27.7316 19.0881L27.9502 17.3033C27.9812 17.0465 27.9572 16.786 27.8797 16.5391C27.8022 16.2923 27.673 16.0648 27.5007 15.8718C27.3283 15.6789 27.1169 15.5248 26.8804 15.4199C26.6439 15.3151 26.3877 15.2618 26.129 15.2637H25.2185C24.9597 15.2618 24.7036 15.3151 24.4671 15.4199C24.2306 15.5248 24.0191 15.6789 23.8468 15.8718C23.6745 16.0648 23.5453 16.2923 23.4678 16.5391C23.3903 16.786 23.3663 17.0465 23.3973 17.3033L23.6159 19.0881C20.636 19.5784 17.927 21.1107 15.9715 23.412C14.016 25.7133 12.9409 28.634 12.9379 31.6539V32.868H10.8132C10.6926 32.8673 10.5746 32.9026 10.4741 32.9692C10.3736 33.0359 10.2953 33.1309 10.249 33.2423C10.2028 33.3537 10.1908 33.4763 10.2145 33.5945C10.2382 33.7127 10.2966 33.8212 10.3822 33.9061L12.8104 36.3343ZM24.6296 17.1576C24.6193 17.072 24.6273 16.9852 24.6531 16.9029C24.679 16.8206 24.722 16.7448 24.7795 16.6805C24.8369 16.6162 24.9074 16.5648 24.9862 16.5298C25.0651 16.4949 25.1504 16.4771 25.2367 16.4778H26.1472C26.2335 16.4771 26.3189 16.4949 26.3977 16.5298C26.4765 16.5648 26.547 16.6162 26.6044 16.6805C26.6619 16.7448 26.705 16.8206 26.7308 16.9029C26.7566 16.9852 26.7646 17.072 26.7543 17.1576L26.5418 18.9788C25.9806 18.9242 25.4154 18.9242 24.8542 18.9788L24.6296 17.1576ZM14.152 31.6539C14.152 28.595 15.3672 25.6613 17.5302 23.4982C19.6932 21.3352 22.6269 20.12 25.6859 20.12C28.7449 20.12 31.6786 21.3352 33.8416 23.4982C36.0046 25.6613 37.2198 28.595 37.2198 31.6539V32.868H14.152V31.6539ZM39.0956 34.0821L37.8815 35.2962H13.4903L12.2762 34.0821H39.0956Z" fill="#0A0A0A"/>
<circle cx="33.7769" cy="22.0889" r="2.66339" fill="#00B13B" stroke="black" stroke-width="0.730906"/>
<defs>
<filter id="filter0_d_1_104" x="5.43594e-05" y="0" width="51.5556" height="51.5556" filterUnits="userSpaceOnUse" color-interpolation-filters="sRGB">
<feFlood flood-opacity="0" result="BackgroundImageFix"/>
<feColorMatrix in="SourceAlpha" type="matrix" values="0 0 0 0 0 0 0 0 0 0 0 0 0 0 0 0 0 0 127 0" result="hardAlpha"/>
<feOffset/>
<feGaussianBlur stdDeviation="1.63889"/>
<feComposite in2="hardAlpha" operator="out"/>
<feColorMatrix type="matrix" values="0 0 0 0 0 0 0 0 0 0 0 0 0 0 0 0 0 0 0.25 0"/>
<feBlend mode="normal" in2="BackgroundImageFix" result="effect1_dropShadow_1_104"/>
<feBlend mode="normal" in="SourceGraphic" in2="effect1_dropShadow_1_104" result="shape"/>
</filter>
</defs>
</svg>
