<svg width="24" height="24" viewBox="0 0 24 24" fill="none" xmlns="http://www.w3.org/2000/svg">
<g clip-path="url(#clip0_18_12789)">
<path d="M7.39995 3.58157L9.28721 2.31379C10.8501 1.26384 12.6903 0.703125 14.5732 0.703125H20.1449M15.818 11.8216L16.5482 14.9683C16.9053 16.5073 15.9266 18.0389 14.38 18.3614L12.7194 14.8559C12.2201 13.8017 11.4485 12.8999 10.4844 12.2434L7.3999 10.1432" stroke="black" stroke-width="1.4062" stroke-miterlimit="10" stroke-linecap="round" stroke-linejoin="round"/>
<path d="M11.7612 20.2799L10.792 21.2491M17.0767 20.2799L18.0459 21.2491M14.419 21.9263V23.297M14.0258 11.7978H21.9006C22.6661 11.7978 23.2868 11.1772 23.2868 10.4117C23.2868 9.64612 22.6662 9.02547 21.9006 9.02547M0.713135 0.708496H6.07948C6.80869 0.708496 7.39985 1.29966 7.39985 2.02887V10.5757C7.39985 11.3049 6.80869 11.896 6.07948 11.896H0.713135V0.708496Z" stroke="black" stroke-width="1.4062" stroke-miterlimit="10" stroke-linecap="round" stroke-linejoin="round"/>
<path d="M21.9006 9.0253H21.4319C22.1974 9.0253 22.8181 8.4047 22.8181 7.63912C22.8181 6.87358 22.1975 6.25293 21.4319 6.25293" stroke="black" stroke-width="1.4062" stroke-miterlimit="10" stroke-linecap="round" stroke-linejoin="round"/>
<path d="M21.4319 6.25333H20.9163C21.6818 6.25333 22.3024 5.63272 22.3024 4.86714C22.3024 4.10156 21.6818 3.48096 20.9163 3.48096" stroke="black" stroke-width="1.4062" stroke-miterlimit="10" stroke-linecap="round" stroke-linejoin="round"/>
<path d="M20.9162 3.48087H20.1663C20.9318 3.48087 21.5524 2.86026 21.5524 2.09468C21.5524 1.3291 20.9318 0.708496 20.1663 0.708496" stroke="black" stroke-width="1.4062" stroke-miterlimit="10" stroke-linecap="round" stroke-linejoin="round"/>
</g>
<defs>
<clipPath id="clip0_18_12789">
<rect width="24" height="24" fill="white"/>
</clipPath>
</defs>
</svg>
