<svg width="53" height="53" viewBox="0 0 53 53" fill="none" xmlns="http://www.w3.org/2000/svg">
<g filter="url(#filter0_d_1_116)">
<circle cx="26.5" cy="26.5" r="22.5" fill="#FAFAFA"/>
</g>
<path d="M37.9281 24.5446L26.2117 15.9662C26.1016 15.8856 25.9688 15.8421 25.8323 15.8421C25.6959 15.8421 25.5631 15.8856 25.453 15.9662L13.7365 24.5446C13.4503 24.7542 13.3882 25.1561 13.5977 25.4422C13.8073 25.7284 14.2092 25.7905 14.4953 25.581L25.8323 17.2803L37.1693 25.581C37.2791 25.6617 37.4119 25.7052 37.5481 25.7051C37.7459 25.7051 37.941 25.6141 38.0668 25.4422C38.2764 25.1561 38.2143 24.7542 37.9281 24.5446Z" fill="black"/>
<path d="M34.8238 25.7264C34.4692 25.7264 34.1816 26.0139 34.1816 26.3686V36.591H29.0439V31.0109C29.0439 29.2402 27.6033 27.7996 25.8326 27.7996C24.062 27.7996 22.6213 29.2403 22.6213 31.0109V36.591H17.4836V26.3686C17.4836 26.0139 17.1961 25.7264 16.8414 25.7264C16.4868 25.7264 16.1992 26.0139 16.1992 26.3686V37.2333C16.1992 37.588 16.4868 37.8755 16.8414 37.8755H23.2635C23.6013 37.8755 23.8777 37.6146 23.9032 37.2833C23.9048 37.2683 23.9057 37.2519 23.9057 37.2333V31.011C23.9057 29.9485 24.7701 29.0841 25.8326 29.0841C26.8951 29.0841 27.7595 29.9485 27.7595 31.011V37.2333C27.7595 37.2518 27.7605 37.2679 27.762 37.2827C27.7873 37.6142 28.0638 37.8755 28.4017 37.8755H34.8238C35.1785 37.8755 35.466 37.588 35.466 37.2333V26.3686C35.466 26.0139 35.1785 25.7264 34.8238 25.7264Z" fill="black"/>
<defs>
<filter id="filter0_d_1_116" x="0" y="0" width="53" height="53" filterUnits="userSpaceOnUse" color-interpolation-filters="sRGB">
<feFlood flood-opacity="0" result="BackgroundImageFix"/>
<feColorMatrix in="SourceAlpha" type="matrix" values="0 0 0 0 0 0 0 0 0 0 0 0 0 0 0 0 0 0 127 0" result="hardAlpha"/>
<feOffset/>
<feGaussianBlur stdDeviation="2"/>
<feComposite in2="hardAlpha" operator="out"/>
<feColorMatrix type="matrix" values="0 0 0 0 0 0 0 0 0 0 0 0 0 0 0 0 0 0 0.25 0"/>
<feBlend mode="normal" in2="BackgroundImageFix" result="effect1_dropShadow_1_116"/>
<feBlend mode="normal" in="SourceGraphic" in2="effect1_dropShadow_1_116" result="shape"/>
</filter>
</defs>
</svg>
