<svg width="24" height="24" viewBox="0 0 24 24" fill="none" xmlns="http://www.w3.org/2000/svg">
<path d="M13.8902 11.9648H20.1923C20.9869 11.9648 21.6379 12.6159 21.6379 13.4105C21.6379 14.2064 20.9869 14.8561 20.1923 14.8561C20.9869 14.8561 21.6379 15.5071 21.6379 16.3017C21.6379 17.0976 20.9869 17.7473 20.1923 17.7473C20.9869 17.7473 21.6379 18.3984 21.6379 19.193C21.6379 19.9889 20.9869 20.64 20.1923 20.64H19.0921C19.8867 20.64 20.5377 21.2897 20.5377 22.0856C20.5377 22.8802 19.8867 23.5312 19.0921 23.5312H12.5535C11.0388 23.5312 8.36145 22.7765 7.19482 21.7906" stroke="black" stroke-width="0.9375" stroke-miterlimit="10" stroke-linecap="round" stroke-linejoin="round"/>
<path d="M7.19482 13.4198C9.9612 11.6553 10.8076 9.55195 11.3391 6.1956C11.5065 5.13262 11.8188 4.12017 13.3348 4.87753C14.33 5.37445 15.1924 7.05131 14.7034 8.89556L13.8902 11.9649M20.1923 14.8562H18.2218M20.1923 17.7474H18.2218M19.0921 20.64H18.2218" stroke="black" stroke-width="0.9375" stroke-miterlimit="10" stroke-linecap="round" stroke-linejoin="round"/>
<path d="M7.19464 13.4197V21.7906M4.88801 14.6568V14.6594M8.76387 2.69967L7.93076 1.96092M17.257 2.69967L18.0901 1.96092M13.0104 1.58222V0.46875M6.13165 6.01612L7.24512 6.06262M19.8892 6.01612L18.7757 6.06262M6.36284 23.1525H3.19386C2.73678 23.1525 2.36206 22.7778 2.36206 22.3207V12.8896C2.36206 12.4325 2.73678 12.0578 3.19386 12.0578H6.36284C6.81992 12.0578 7.19464 12.4325 7.19464 12.8896V22.3208C7.19464 22.7779 6.81992 23.1525 6.36284 23.1525Z" stroke="black" stroke-width="0.9375" stroke-miterlimit="10" stroke-linecap="round" stroke-linejoin="round"/>
</svg>
