<svg width="218" height="71" viewBox="0 0 218 71" fill="none" xmlns="http://www.w3.org/2000/svg">
<g clip-path="url(#clip0_406_317)">
<path d="M102.846 40.707C109.605 40.707 114.696 44.6845 114.696 48.8629C114.696 51.154 112.946 52.8403 110.362 52.8403C108.65 52.8403 108.094 52.4845 106.862 50.4299C105.668 48.4609 104.357 47.9397 102.369 47.9397C99.5044 47.9397 97.1981 50.752 97.1981 55.8537C97.1981 60.555 99.0273 63.7694 102.846 63.7694C104.515 63.7694 105.351 63.2874 107.18 60.7169C108.061 59.4717 109.168 58.7887 110.525 58.7887C112.911 58.7887 114.781 60.4359 114.781 62.8462C114.781 67.9087 107.941 71.0021 102.851 71.0021C95.1751 71.0021 88.0625 66.3415 88.0625 55.8537C88.052 45.7286 95.2491 40.707 102.846 40.707Z" fill="#ffffff"/>
<path d="M136.809 45.8478C136.809 42.7545 138.559 40.8672 141.386 40.8672C144.214 40.8672 145.964 42.7563 145.964 45.8478V65.8668C145.964 68.96 144.214 70.8473 141.386 70.8473C138.559 70.8473 136.809 68.9583 136.809 65.8668V59.1071H127.862V65.8668C127.862 68.96 126.112 70.8473 123.284 70.8473C120.457 70.8473 118.707 68.9583 118.707 65.8668V45.8478C118.707 42.7545 120.455 40.8672 123.284 40.8672C126.114 40.8672 127.862 42.7563 127.862 45.8478V51.3124H136.809V45.8478Z" fill="#ffffff"/>
<path d="M209.173 44.5597C209.612 41.7473 211.4 40.8633 213.508 40.8633C215.934 40.8633 217.645 42.5513 217.645 44.8816C217.645 46.1267 217.206 47.9358 216.651 50.2181L212.628 66.6989C211.991 69.3119 210.515 70.8382 207.857 70.8382H206.466C203.801 70.8382 202.529 69.392 202.013 66.5796L199.505 53.1584H199.422L196.925 66.5762C196.409 69.3884 195.136 70.8346 192.471 70.8346H191.08C188.414 70.8346 186.944 69.3084 186.306 66.6953L182.291 50.2216C181.734 47.9322 181.297 46.1304 181.297 44.8852C181.297 42.5548 183.006 40.8668 185.433 40.8668C187.545 40.8668 189.33 41.7561 189.766 44.5632L192.272 60.3146H192.352L194.858 45.3263C195.374 42.1528 196.328 40.8668 199.471 40.8668C202.614 40.8668 203.566 42.1528 204.083 45.3263L206.588 60.3146H206.668L209.173 44.5597Z" fill="#ffffff"/>
<path d="M107.038 14.9805C109.423 14.9805 110.636 16.8198 110.636 18.7908C110.636 20.7617 109.423 22.6028 107.038 22.6028H98.0147V28.8287C98.0147 32.2085 96.1063 34.2594 93.0287 34.2594C89.9513 34.2594 88.043 32.2014 88.043 28.8287V8.14629C88.043 3.94115 89.8633 2.14453 93.7224 2.14453H108.073C111.802 2.14453 112.8 4.071 112.8 6.0864C112.8 8.10181 111.802 10.0301 108.073 10.0301H98.0147V14.9805H107.038Z" fill="#ffffff"/>
<path d="M188.555 8.14627C188.555 3.94115 190.374 2.14453 194.234 2.14453H202.684C213.048 2.14453 217.649 9.15308 217.649 17.9156C217.649 26.6781 213.052 33.6848 202.684 33.6848H194.234C190.374 33.6848 188.555 31.8899 188.555 27.6831V8.14627ZM200.482 25.7994C206.249 25.7994 207.679 22.9087 207.679 17.9156C207.679 12.9224 206.249 10.03 200.482 10.03H198.271V25.7994H200.482Z" fill="#ffffff"/>
<path d="M131.455 1.39844C123.18 1.39844 115.324 6.87544 115.324 17.9149C115.324 28.3992 121.852 33.5399 129.389 34.3209C129.285 33.154 129.199 32.4194 129.171 32.1864C126.081 29.8383 127.016 21.7339 127.148 14.9548C127.233 10.6074 127.212 7.10491 127.212 7.10491L127.724 7.07288C127.724 7.07288 128.02 10.86 128.139 14.793C128.277 19.3325 128.011 23.9983 129.002 23.9983C129.993 23.9983 129.706 19.3557 129.706 14.8908V6.98749L130.185 7.01952C130.185 7.01952 130.47 10.9027 130.569 14.8677C130.682 19.377 130.505 24.0731 131.463 24.0731C132.421 24.0731 132.139 19.5105 132.116 14.7396C132.099 10.8369 132.007 7.34505 132.007 7.34505H132.583C132.583 7.34505 132.935 10.9899 133.062 14.9015C133.226 19.8822 133.062 24.0748 134.021 24.0748C134.981 24.0748 134.836 18.895 134.597 14.9335C134.363 11.0575 134.374 7.16539 134.374 7.16539L135.013 7.09245C135.141 8.99757 135.365 11.6534 135.557 14.7752C135.997 22.2303 136.859 29.9895 133.56 32.229C133.528 32.4869 133.444 33.2144 133.344 34.3405C140.954 33.6201 147.583 28.4828 147.583 17.9166C147.583 6.87544 139.734 1.39844 131.455 1.39844Z" fill="#ffffff"/>
<path d="M167.525 1.39844C159.25 1.39844 151.395 6.87544 151.395 17.9149C151.395 28.7976 158.436 33.9243 166.322 34.3902C166.163 30.1051 165.828 27.5187 165.828 27.5187C159.648 23.8169 160.342 17.753 162.671 12.7153C164.564 8.62401 166.662 8.037 167.424 7.96586C167.471 7.96321 167.517 7.96321 167.564 7.96586C167.619 7.96201 167.674 7.96201 167.729 7.96586C168.513 8.037 170.668 8.62225 172.482 12.7153C174.737 17.7868 175.503 23.8188 169.324 27.5187C169.324 27.5187 168.989 30.1015 168.83 34.3831C176.676 33.8708 183.639 28.7443 183.639 17.9149C183.654 6.87544 175.804 1.39844 167.525 1.39844Z" fill="#ffffff"/>
<path d="M163.954 40.7539C156.416 40.7539 149.273 45.7346 149.273 55.7868C149.273 65.2358 155.097 69.9141 161.872 70.6968C162.497 70.7962 163.13 70.845 163.762 70.8428C164.402 70.8394 165.039 70.8033 165.674 70.7342C172.601 70.0796 178.635 65.3977 178.635 55.792C178.635 45.7381 171.491 40.7539 163.954 40.7539ZM164.793 63.0782C164.484 63.1123 164.173 63.1301 163.861 63.1315C163.552 63.1323 163.245 63.1087 162.939 63.0604C159.638 62.6797 156.8 60.3922 156.8 55.7939C156.8 50.8968 160.281 48.4686 163.954 48.4686C167.625 48.4686 171.108 50.8968 171.108 55.7939C171.108 60.4793 168.168 62.7579 164.793 63.0782Z" fill="#ffffff"/>
<path fill-rule="evenodd" clip-rule="evenodd" d="M33.2745 69.6925C51.5954 69.6925 66.4473 54.7527 66.4473 36.32C66.4473 17.889 51.5954 2.94922 33.2745 2.94922C14.9536 2.94922 0.101562 17.8875 0.101562 36.32C0.101562 54.7527 14.9536 69.6925 33.2745 69.6925ZM53.5436 49.9408C56.2214 45.9086 57.6505 41.168 57.6502 36.3187C57.65 33.0987 57.0194 29.9103 55.7942 26.9355C54.5692 23.9606 52.7736 21.2578 50.5101 18.981C48.2465 16.7044 45.5595 14.8986 42.6022 13.6666C39.645 12.4347 36.4755 11.8009 33.2747 11.8012C28.4543 11.8019 23.7424 13.2404 19.7348 15.9351C15.7271 18.6296 12.6037 22.4594 10.7595 26.9398C8.91536 31.4202 8.43322 36.3501 9.3741 41.1062C10.315 45.8623 12.6366 50.2308 16.0454 53.6595C19.4542 57.0881 23.7971 59.4229 28.5251 60.3687C33.2528 61.3142 38.1531 60.8283 42.6065 58.9722C47.0598 57.1161 50.8658 53.9731 53.5436 49.9408Z" fill="#ffffff"/>
<path d="M34.7689 56.6794C22.8244 56.6794 13.1423 47.5621 13.1423 36.3162C13.1423 25.0702 22.8291 15.9606 34.7689 15.9606C39.1439 15.9445 43.4293 17.2094 47.1024 19.6009C43.9439 16.9562 40.1017 15.2715 36.0259 14.7441C31.9501 14.2168 27.8092 14.8686 24.0883 16.6233C20.3674 18.3779 17.2205 21.1627 15.0159 24.6515C12.8114 28.1404 11.6406 32.189 11.6406 36.3231C11.6406 40.4572 12.8114 44.5058 15.0159 47.9946C17.2205 51.4835 20.3674 54.2683 24.0883 56.0229C27.8092 57.7776 31.9501 58.4293 36.0259 57.9021C40.1017 57.3746 43.9439 55.69 47.1024 53.0453C43.4287 55.4346 39.1433 56.6973 34.7689 56.6794Z" fill="#ffffff"/>
<path d="M44.595 21.3402C45.0019 21.3402 45.6731 21.3608 46.6088 21.4016C47.5614 21.4449 48.5096 21.5577 49.4461 21.7393C50.3073 21.8945 51.1471 22.152 51.9479 22.5065C52.6598 22.835 53.0156 23.3062 53.0156 23.9199C53.0156 24.1635 52.9636 24.4043 52.8632 24.626C52.7054 24.9089 52.4731 25.1424 52.1919 25.3011C51.7189 25.5873 51.218 25.8238 50.697 26.0072C50.045 26.2527 49.1909 26.539 48.1342 26.8664C48.7444 26.2527 49.0494 25.782 49.0494 25.4546C49.0494 25.2505 48.8451 25.1477 48.4394 25.1477C47.3679 25.1719 46.2986 25.2539 45.2359 25.3932C43.8323 25.558 42.3877 25.7318 40.9019 25.915C39.4162 26.0982 38.0331 26.2721 36.7527 26.4368C35.8528 26.5684 34.9463 26.6504 34.0372 26.6823C33.5889 27.7473 33.1922 28.7397 32.8475 29.6596C32.5028 30.5792 32.1874 31.4489 31.9016 32.2684C33.2838 32.1057 34.5448 31.9522 35.6848 31.808C36.8248 31.6638 37.9029 31.5308 38.9189 31.409C41.563 31.0827 43.7296 30.7859 45.4189 30.519C47.1081 30.2519 48.6233 30.0166 49.9647 29.8131C48.1429 31.0456 46.259 32.1829 44.3206 33.22C42.8041 34.0202 41.2218 34.6878 39.5915 35.2149C38.1996 35.6762 36.7704 36.0152 35.3203 36.2278C33.8152 36.4519 32.0654 36.6871 30.0711 36.9337C29.3805 39.1846 28.7907 41.4353 28.3015 43.6862C27.7775 46.2339 27.4714 48.8221 27.3862 51.4223C27.8744 50.6856 28.3727 49.8979 28.8813 49.059C29.3898 48.2201 29.8676 47.3704 30.3152 46.5099C30.7636 45.6505 31.1705 44.8013 31.5356 43.9624C31.8764 43.1961 32.1624 42.4064 32.3913 41.5991C32.5127 42.2054 32.574 42.8222 32.5744 43.4407C32.5704 44.6137 32.4062 45.7808 32.0862 46.9089C31.778 48.0288 31.3696 49.1183 30.8659 50.1639C30.4302 51.0847 29.8874 51.9502 29.2489 52.7421C28.6591 53.4583 28.0996 53.8982 27.5708 54.0619C27.2156 53.9433 26.869 53.7997 26.5335 53.6321C26.1888 53.4509 25.903 53.174 25.7098 52.8343C25.4477 52.3657 25.2624 51.8579 25.1606 51.3303C24.9992 50.4911 24.9277 49.6372 24.9471 48.7827C24.9471 48.2901 24.9866 47.6057 25.0691 46.7248C25.1515 45.8439 25.2719 44.8832 25.4352 43.8397C25.5984 42.7961 25.7708 41.7218 25.9538 40.6169C26.1369 39.512 26.3505 38.4684 26.5945 37.4863C25.2918 37.568 24.1833 37.6396 23.269 37.701C22.3548 37.7624 21.7141 37.7932 21.347 37.7932C20.573 37.0145 20.1866 36.0319 20.1875 34.8451C20.1875 33.7821 20.4317 32.9432 20.9198 32.3282C21.2035 32.492 21.8341 32.5739 22.8113 32.5739C23.2771 32.5715 23.7398 32.4991 24.1843 32.359C24.6512 32.2168 25.1088 32.0633 25.5572 31.8986L25.6792 33.0649C26.1028 32.9866 26.5307 32.9353 26.9607 32.9115C27.3707 32.8913 27.7786 32.8399 28.181 32.758C28.5065 32.0633 28.8523 31.2346 29.2183 30.2719C29.5846 29.3091 30.032 28.2758 30.5609 27.1719C30.032 27.0491 29.4116 26.8956 28.6997 26.7115C28.0019 26.5327 27.3265 26.2752 26.6861 25.9442C26.0788 25.6357 25.5393 25.2079 25.0996 24.6858C24.6676 24.1597 24.4401 23.4939 24.4589 22.812C24.4589 21.8298 24.6623 21.1954 25.0691 20.909C25.3528 21.1146 25.6182 21.2988 25.8624 21.4614C26.1383 21.6411 26.4355 21.7855 26.7471 21.8912C27.1334 22.0237 27.5321 22.1162 27.937 22.1673C28.5038 22.2356 29.0745 22.2664 29.6456 22.2595C30.7061 22.2525 31.7657 22.191 32.8201 22.0753C33.1027 21.6689 33.3478 21.2375 33.5522 20.7863C33.7659 20.2975 33.9097 19.7808 33.9794 19.2516C34.2364 19.2386 34.4911 19.3052 34.7093 19.4425C34.9276 19.5796 35.0987 19.7808 35.1997 20.0189C35.4557 20.5872 35.5808 21.2061 35.5659 21.8298C38.3728 21.6252 40.4982 21.4922 41.9423 21.4308C43.3865 21.3694 44.2707 21.3391 44.595 21.3402Z" fill="#ffffff"/>
</g>
<defs>
<clipPath id="clip0_406_317">
<rect width="218" height="71" fill="white"/>
</clipPath>
</defs>
</svg>
