<svg width="30" height="30" viewBox="0 0 30 30" fill="none" xmlns="http://www.w3.org/2000/svg">
<g filter="url(#filter0_d_129_3171)">
<rect x="3.5" y="3.5" width="23" height="23" rx="3.5" stroke="#0AA89E" shape-rendering="crispEdges"/>
</g>
<path d="M19.2764 15.4136C18.9712 15.4136 18.7246 15.6608 18.7246 15.9653V20.3794C18.7246 20.6835 18.4774 20.9312 18.1729 20.9312H10.4482C10.1436 20.9312 9.89652 20.6835 9.89652 20.3794V12.6548C9.89652 12.3508 10.1436 12.1031 10.4482 12.1031H14.8624C15.1675 12.1031 15.4141 11.8559 15.4141 11.5513C15.4141 11.2467 15.1675 10.9995 14.8624 10.9995H10.4482C9.53565 10.9995 8.79297 11.7422 8.79297 12.6548V20.3794C8.79297 21.2921 9.53565 22.0347 10.4482 22.0347H18.1729C19.0855 22.0347 19.8282 21.2921 19.8282 20.3794V15.9653C19.8282 15.6603 19.5814 15.4136 19.2764 15.4136Z" fill="#0AA89E"/>
<path d="M13.9666 14.911C13.9283 14.9495 13.902 14.9984 13.8911 15.0516L13.501 17.0027C13.4828 17.0932 13.5115 17.1864 13.5765 17.2521C13.6022 17.2777 13.6327 17.298 13.6662 17.3118C13.6997 17.3256 13.7357 17.3327 13.7719 17.3326C13.7895 17.3326 13.8078 17.331 13.826 17.3272L15.7765 16.9371C15.8305 16.926 15.8796 16.9001 15.9177 16.8614L20.2832 12.4959L18.3327 10.5455L13.9666 14.911ZM21.6317 9.19646C21.0938 8.65847 20.2187 8.65847 19.6812 9.19646L18.9176 9.96004L20.8681 11.9105L21.6317 11.1468C21.8921 10.887 22.0356 10.5404 22.0356 10.1719C22.0356 9.80333 21.8921 9.45681 21.6317 9.19646Z" fill="#0AA89E"/>
<defs>
<filter id="filter0_d_129_3171" x="0" y="0" width="30" height="30" filterUnits="userSpaceOnUse" color-interpolation-filters="sRGB">
<feFlood flood-opacity="0" result="BackgroundImageFix"/>
<feColorMatrix in="SourceAlpha" type="matrix" values="0 0 0 0 0 0 0 0 0 0 0 0 0 0 0 0 0 0 127 0" result="hardAlpha"/>
<feOffset/>
<feGaussianBlur stdDeviation="1.5"/>
<feComposite in2="hardAlpha" operator="out"/>
<feColorMatrix type="matrix" values="0 0 0 0 0 0 0 0 0 0 0 0 0 0 0 0 0 0 0.25 0"/>
<feBlend mode="normal" in2="BackgroundImageFix" result="effect1_dropShadow_129_3171"/>
<feBlend mode="normal" in="SourceGraphic" in2="effect1_dropShadow_129_3171" result="shape"/>
</filter>
</defs>
</svg>
