<svg width="24" height="24" viewBox="0 0 24 24" fill="none" xmlns="http://www.w3.org/2000/svg">
<rect x="0.5" y="0.5" width="23" height="23" rx="3.5" stroke="#FC0005"/>
<path d="M17.0131 6.8274H14.3871V6.36188C14.3871 5.59058 13.7459 4.96533 12.9548 4.96533H11.045C10.2539 4.96533 9.6126 5.59058 9.6126 6.36188V6.8274H6.9866C6.32739 6.8274 5.79297 7.34846 5.79297 7.99119V8.92223C5.79297 9.17934 6.00672 9.38775 6.27042 9.38775H17.7293C17.993 9.38775 18.2068 9.17934 18.2068 8.92223V7.99119C18.2068 7.34846 17.6723 6.8274 17.0131 6.8274ZM10.5675 6.36188C10.5675 6.10527 10.7818 5.89637 11.045 5.89637H12.9548C13.218 5.89637 13.4322 6.10527 13.4322 6.36188V6.8274H10.5675V6.36188ZM6.69906 10.3188C6.67887 10.3188 6.65888 10.3228 6.64032 10.3305C6.62176 10.3383 6.60501 10.3496 6.59108 10.3639C6.57714 10.3781 6.56632 10.395 6.55927 10.4134C6.55221 10.4319 6.54907 10.4515 6.55003 10.4712L6.94393 18.5317C6.98034 19.2777 7.60878 19.8619 8.3745 19.8619H15.6252C16.3909 19.8619 17.0194 19.2777 17.0558 18.5317L17.4497 10.4712C17.4507 10.4515 17.4475 10.4319 17.4405 10.4134C17.4334 10.395 17.4226 10.3781 17.4087 10.3639C17.3947 10.3496 17.378 10.3383 17.3594 10.3305C17.3408 10.3228 17.3209 10.3188 17.3007 10.3188H6.69906ZM13.9097 11.4826C13.9097 11.2254 14.1233 11.0171 14.3871 11.0171C14.6509 11.0171 14.8646 11.2254 14.8646 11.4826V17.5343C14.8646 17.7915 14.6509 17.9998 14.3871 17.9998C14.1233 17.9998 13.9097 17.7915 13.9097 17.5343V11.4826ZM11.5224 11.4826C11.5224 11.2254 11.7361 11.0171 11.9999 11.0171C12.2637 11.0171 12.4773 11.2254 12.4773 11.4826V17.5343C12.4773 17.7915 12.2637 17.9998 11.9999 17.9998C11.7361 17.9998 11.5224 17.7915 11.5224 17.5343V11.4826ZM9.13514 11.4826C9.13514 11.2254 9.3488 11.0171 9.6126 11.0171C9.87639 11.0171 10.0901 11.2254 10.0901 11.4826V17.5343C10.0901 17.7915 9.87639 17.9998 9.6126 17.9998C9.3488 17.9998 9.13514 17.7915 9.13514 17.5343V11.4826Z" fill="#FC0005"/>
</svg>
