<svg width="24" height="24" viewBox="0 0 24 24" fill="none" xmlns="http://www.w3.org/2000/svg">
<g clip-path="url(#clip0_423_75)">
<path d="M23.25 21.3778H21.9204V15.2954C22.8684 15.0531 23.5721 14.1943 23.5778 13.1731L23.5779 13.1698C23.5779 13.1668 23.5781 13.1638 23.5781 13.1607H23.5777C23.5777 13.1258 23.5725 13.0907 23.5612 13.0568L21.9204 8.14734V3.38067C21.9204 3.29365 21.8858 3.21019 21.8243 3.14865C21.7627 3.08712 21.6793 3.05255 21.5923 3.05255H16.8408C15.81 1.47023 14.0252 0.421875 12 0.421875C9.97477 0.421875 8.19005 1.47023 7.15917 3.05255H2.40769C2.32066 3.05255 2.2372 3.08712 2.17567 3.14865C2.11413 3.21019 2.07956 3.29365 2.07956 3.38067V8.14744L0.438797 13.0567C0.427724 13.0902 0.422152 13.1254 0.422297 13.1607H0.421875C0.421875 13.1637 0.422109 13.1667 0.422109 13.1698L0.422203 13.1731C0.427922 14.1942 1.13161 15.053 2.07956 15.2954V21.3778H0.75C0.662976 21.3778 0.579516 21.4124 0.517981 21.4739C0.456445 21.5355 0.421875 21.6189 0.421875 21.7059V23.25C0.421875 23.337 0.456445 23.4205 0.517981 23.482C0.579516 23.5436 0.662976 23.5781 0.75 23.5781H23.25C23.337 23.5781 23.4205 23.5436 23.482 23.482C23.5436 23.4205 23.5781 23.337 23.5781 23.25V21.7059C23.5781 21.6189 23.5436 21.5355 23.482 21.4739C23.4205 21.4124 23.337 21.3778 23.25 21.3778ZM21.375 14.7076C20.6347 14.7076 20.0145 14.1847 19.8635 13.4888H22.8865C22.7355 14.1847 22.1153 14.7076 21.375 14.7076ZM6.71948 8.52886C7.05614 9.28777 7.55166 9.96094 8.16375 10.5062L7.95066 12.8326H4.90078L5.76755 8.52891L6.71948 8.52886ZM17.2805 8.52886H18.2325L19.0992 12.8325H16.0494L15.8363 10.5061C16.4483 9.96094 16.9439 9.28777 17.2805 8.52886ZM15.2212 10.9848L15.3904 12.8326H12.3281V11.9595C13.395 11.8995 14.3856 11.5486 15.2212 10.9848ZM11.6719 12.8326H8.60958L8.77884 10.9848C9.61448 11.5486 10.605 11.8995 11.6718 11.9596V12.8326H11.6719ZM7.88658 13.4888C7.73564 14.1847 7.11539 14.7076 6.375 14.7076C5.63466 14.7076 5.01445 14.1847 4.86347 13.4888H7.88658ZM11.6365 13.4888C11.4856 14.1847 10.8654 14.7076 10.125 14.7076C9.3847 14.7076 8.7645 14.1847 8.61352 13.4888H11.6365ZM15.3865 13.4888C15.2356 14.1847 14.6153 14.7076 13.875 14.7076C13.1347 14.7076 12.5145 14.1847 12.3635 13.4888H15.3865ZM19.1365 13.4888C18.9856 14.1847 18.3653 14.7076 17.625 14.7076C16.8847 14.7076 16.2645 14.1847 16.1135 13.4888H19.1365ZM19.7686 12.8326L18.9019 8.52891H21.3561L22.7944 12.8326H19.7686ZM21.2642 3.7088V7.87266H17.5249C17.6901 7.32896 17.774 6.76378 17.7736 6.19552C17.7736 5.30569 17.5711 4.46231 17.21 3.70884L21.2642 3.7088ZM12 1.07812C14.8217 1.07812 17.1173 3.37373 17.1173 6.19547C17.1173 9.0172 14.8217 11.3129 12 11.3129C9.17831 11.3129 6.88266 9.0172 6.88266 6.19552C6.88266 3.37383 9.17831 1.07812 12 1.07812ZM6.78998 3.7088C6.42891 4.46227 6.22641 5.30564 6.22641 6.19547C6.22604 6.76373 6.30986 7.32891 6.47513 7.87261H2.73581V3.7088H6.78998ZM2.64398 8.52886H5.09812L4.23136 12.8325H1.20562L2.64398 8.52886ZM1.11347 13.4888H4.13648C3.98555 14.1847 3.3653 14.7076 2.62495 14.7076C1.88461 14.7076 1.26445 14.1847 1.11347 13.4888ZM2.73581 15.3602C3.4808 15.323 4.12973 14.915 4.5 14.3164C4.88855 14.9445 5.5837 15.3638 6.375 15.3638C7.1663 15.3638 7.8615 14.9445 8.25005 14.3164C8.63859 14.9445 9.33375 15.3638 10.125 15.3638C10.9163 15.3638 11.6115 14.9445 12 14.3165C12.3885 14.9445 13.0837 15.3638 13.875 15.3638C14.6663 15.3638 15.3615 14.9445 15.75 14.3164C16.1385 14.9445 16.8337 15.3638 17.625 15.3638C18.4163 15.3638 19.1115 14.9445 19.5 14.3164C19.8703 14.915 20.5192 15.323 21.2642 15.3602V21.3778H19.3642V19.6402C19.3642 18.6172 18.9542 17.6676 18.2098 16.9664C17.4554 16.2557 16.4151 15.8643 15.2806 15.8643C14.1461 15.8643 13.1058 16.2557 12.3514 16.9664C11.607 17.6676 11.197 18.6172 11.197 19.6402V21.3778H9.5865V18.3396C9.5865 16.9747 8.47608 15.8643 7.11117 15.8643C5.74627 15.8643 4.63589 16.9747 4.63589 18.3396V21.3778H2.73581V15.3602ZM15.6087 16.5339C17.1059 16.652 18.2683 17.5739 18.607 18.8555H15.6087V16.5339ZM14.9524 18.8554H11.9541C12.2928 17.5739 13.4552 16.652 14.9524 16.5339V18.8554ZM11.8532 19.6402C11.8532 19.597 11.8548 19.5543 11.8566 19.5117H14.9524V21.3779H11.8532V19.6402ZM15.6087 19.5117H18.7045C18.7063 19.5543 18.7079 19.597 18.7079 19.6401V21.3778H15.6087V19.5117ZM8.9302 21.3778H5.29214V18.3396C5.29214 17.3365 6.10814 16.5205 7.11117 16.5205C8.1142 16.5205 8.93025 17.3365 8.93025 18.3396L8.9302 21.3778ZM22.9219 22.9219H1.07812V22.0341H22.9219V22.9219ZM13.8624 6.89517L13.8623 9.41597C13.8623 9.50299 13.8969 9.58645 13.9584 9.64799C14.02 9.70952 14.1034 9.74409 14.1905 9.74409C14.2775 9.74409 14.361 9.70952 14.4225 9.64799C14.484 9.58645 14.5186 9.50299 14.5186 9.41597L14.5186 2.97497C14.5187 2.93187 14.5102 2.8892 14.4937 2.84938C14.4772 2.80956 14.453 2.77338 14.4226 2.74291C14.3921 2.71244 14.3559 2.68827 14.3161 2.67178C14.2763 2.6553 14.2336 2.64683 14.1905 2.64684C13.2944 2.64684 12.6684 3.59442 12.6684 4.95117V5.23327C12.6685 5.9453 13.0699 6.50367 13.8624 6.89517ZM13.3247 4.95117C13.3247 4.22072 13.5377 3.6435 13.8624 3.41241V6.14081C13.4977 5.89486 13.3247 5.59973 13.3247 5.23322V4.95117ZM9.48136 4.23586V2.90602C9.48136 2.81899 9.51593 2.73553 9.57747 2.674C9.639 2.61246 9.72246 2.57789 9.80948 2.57789C9.89651 2.57789 9.97997 2.61246 10.0415 2.674C10.103 2.73553 10.1376 2.81899 10.1376 2.90602V4.23586C10.1376 4.29008 10.1486 4.34374 10.1699 4.39359C10.1912 4.44344 10.2224 4.48844 10.2616 4.52588V2.90602C10.2616 2.86293 10.2701 2.82026 10.2866 2.78045C10.3031 2.74064 10.3273 2.70447 10.3577 2.674C10.3882 2.64353 10.4244 2.61936 10.4642 2.60287C10.504 2.58638 10.5467 2.57789 10.5898 2.57789C10.6329 2.57789 10.6755 2.58638 10.7153 2.60287C10.7551 2.61936 10.7913 2.64353 10.8218 2.674C10.8523 2.70447 10.8764 2.74064 10.8929 2.78045C10.9094 2.82026 10.9179 2.86293 10.9179 2.90602V4.52583C10.9571 4.48841 10.9883 4.44341 11.0097 4.39357C11.031 4.34372 11.042 4.29007 11.0419 4.23586V2.90602C11.0419 2.81899 11.0765 2.73553 11.138 2.674C11.1996 2.61246 11.283 2.57789 11.37 2.57789C11.4571 2.57789 11.5405 2.61246 11.6021 2.674C11.6636 2.73553 11.6982 2.81899 11.6982 2.90602V4.23586C11.6982 4.72312 11.367 5.1345 10.9179 5.25675V9.48492C10.9179 9.57195 10.8833 9.65541 10.8218 9.71694C10.7602 9.77848 10.6768 9.81305 10.5898 9.81305C10.5027 9.81305 10.4193 9.77848 10.3577 9.71694C10.2962 9.65541 10.2616 9.57195 10.2616 9.48492V5.25675C9.81258 5.1345 9.48136 4.72312 9.48136 4.23586Z" fill="white"/>
</g>
<defs>
<clipPath id="clip0_423_75">
<rect width="24" height="24" fill="white"/>
</clipPath>
</defs>
</svg>

