<svg width="53" height="53" viewBox="0 0 53 53" fill="none" xmlns="http://www.w3.org/2000/svg">
<g filter="url(#filter0_d_1_98)">
<circle cx="26.5" cy="26.5" r="22.5" fill="#FAFAFA"/>
</g>
<path d="M36.4481 18.5403C36.5773 18.4112 36.6498 18.236 36.6498 18.0533C36.6498 17.8707 36.5773 17.6955 36.4481 17.5664C36.319 17.4372 36.1438 17.3647 35.9611 17.3647C35.7785 17.3647 35.6033 17.4372 35.4742 17.5664L29.7622 23.2784V20.648C29.7622 19.8813 29.342 19.1822 28.665 18.8227C28.3338 18.6462 27.9607 18.5635 27.586 18.5835C27.2113 18.6036 26.8492 18.7256 26.5387 18.9363L21.7318 22.186H19.4306C18.2913 22.186 17.3643 23.1131 17.3643 24.2523V29.7625C17.3643 30.9017 18.2913 31.8288 19.4306 31.8288H21.2117L17.5661 35.4745C17.4369 35.6036 17.3644 35.7788 17.3644 35.9615C17.3644 36.1441 17.4369 36.3193 17.5661 36.4484C17.6952 36.5776 17.8704 36.6501 18.053 36.6501C18.2357 36.6501 18.4108 36.5776 18.54 36.4484L22.5838 32.4046L26.5387 35.0784C26.8492 35.2891 27.2114 35.411 27.586 35.431C27.9607 35.4511 28.3338 35.3685 28.665 35.1921C28.9967 35.0166 29.2743 34.7539 29.4676 34.4322C29.661 34.1105 29.7628 33.7422 29.7622 33.3668V25.2262L31.3567 23.6317C32.1487 24.6488 32.5583 25.9118 32.5139 27.2001C32.4696 28.4885 31.9742 29.7203 31.1142 30.6806C31.0539 30.7481 31.0075 30.8267 30.9775 30.9121C30.9476 30.9975 30.9348 31.0879 30.9398 31.1783C30.9448 31.2686 30.9676 31.3571 31.0068 31.4386C31.046 31.5202 31.1009 31.5932 31.1683 31.6535C31.2357 31.7139 31.3144 31.7603 31.3998 31.7902C31.4852 31.8202 31.5756 31.833 31.666 31.828C31.8484 31.8178 32.0194 31.7356 32.1412 31.5995C33.2361 30.377 33.8575 28.8032 33.8932 27.1625C33.9288 25.5218 33.3763 23.9225 32.3354 22.6537L33.3128 21.6763C34.5794 23.1637 35.2744 25.0538 35.2731 27.0074C35.2731 29.1516 34.4555 31.1834 32.9719 32.7297C32.8505 32.8625 32.7859 33.0374 32.7918 33.2171C32.7977 33.3968 32.8737 33.5671 33.0035 33.6915C33.1332 33.816 33.3066 33.8848 33.4864 33.8832C33.6662 33.8816 33.8382 33.8097 33.9658 33.683C35.6923 31.8901 36.6547 29.4965 36.6499 27.0074C36.6499 24.6704 35.8082 22.4539 34.2874 20.701L36.4481 18.5403ZM22.3282 30.569C22.2143 30.4921 22.08 30.4511 21.9425 30.4513H19.4306C19.0511 30.4513 18.7418 30.142 18.7418 29.7625V24.2523C18.7418 23.8728 19.0511 23.5635 19.4306 23.5635H21.9425C22.0803 23.5635 22.2146 23.5222 22.3282 23.4457L27.3102 20.0776C27.413 20.0061 27.5337 19.9647 27.6588 19.958C27.7839 19.9513 27.9083 19.9796 28.0182 20.0398C28.1284 20.0976 28.3839 20.2739 28.3839 20.648V24.6559L22.413 30.6269L22.3282 30.569ZM28.3846 33.3668C28.3864 33.4922 28.3531 33.6156 28.2885 33.7231C28.2238 33.8305 28.1305 33.9178 28.0189 33.975C27.909 34.0355 27.7844 34.0641 27.6591 34.0574C27.5338 34.0507 27.413 34.009 27.3102 33.9372L23.5756 31.4121L28.3846 26.6031V33.3668Z" fill="#FF8551"/>
<circle cx="26.5001" cy="26.5" r="13.7105" stroke="#0AA89E"/>
<defs>
<filter id="filter0_d_1_98" x="0" y="0" width="53" height="53" filterUnits="userSpaceOnUse" color-interpolation-filters="sRGB">
<feFlood flood-opacity="0" result="BackgroundImageFix"/>
<feColorMatrix in="SourceAlpha" type="matrix" values="0 0 0 0 0 0 0 0 0 0 0 0 0 0 0 0 0 0 127 0" result="hardAlpha"/>
<feOffset/>
<feGaussianBlur stdDeviation="2"/>
<feComposite in2="hardAlpha" operator="out"/>
<feColorMatrix type="matrix" values="0 0 0 0 0 0 0 0 0 0 0 0 0 0 0 0 0 0 0.25 0"/>
<feBlend mode="normal" in2="BackgroundImageFix" result="effect1_dropShadow_1_98"/>
<feBlend mode="normal" in="SourceGraphic" in2="effect1_dropShadow_1_98" result="shape"/>
</filter>
</defs>
</svg>
