<svg width="53" height="53" viewBox="0 0 53 53" fill="none" xmlns="http://www.w3.org/2000/svg">
<g filter="url(#filter0_d_1_121)">
<circle cx="26.5" cy="26.5" r="22.5" fill="#FAFAFA"/>
</g>
<path d="M21.4435 30.7263C21.3014 30.898 21.2333 31.1192 21.2542 31.3412C21.2751 31.5631 21.3834 31.7677 21.5552 31.9098C21.7269 32.0519 21.9481 32.12 22.17 32.0991C22.392 32.0781 22.5965 31.9699 22.7387 31.7981C24.7998 29.306 28.3147 29.306 30.3758 31.7981C30.518 31.9699 30.7225 32.0781 30.9445 32.0991C31.1664 32.12 31.3876 32.0519 31.5594 31.9098C31.7311 31.7677 31.8394 31.5631 31.8603 31.3412C31.8812 31.1192 31.8132 30.898 31.671 30.7263C28.9556 27.457 24.1589 27.457 21.4435 30.7263Z" fill="#00CC00"/>
<path d="M26.5575 22.609C23.1543 22.609 19.9565 24.0963 17.5582 26.7983C17.4107 26.9641 17.3351 27.1818 17.3481 27.4033C17.3611 27.6248 17.4616 27.8321 17.6274 27.9796C17.7932 28.1271 18.0108 28.2026 18.2324 28.1896C18.4539 28.1767 18.6612 28.0762 18.8087 27.9104C20.8854 25.5723 23.6366 24.2839 26.5575 24.2839C29.4784 24.2839 32.2295 25.5723 34.3063 27.9104C34.379 27.9929 34.4674 28.0603 34.5663 28.1085C34.6652 28.1567 34.7727 28.1848 34.8825 28.1912C34.9923 28.1977 35.1024 28.1823 35.2062 28.146C35.3101 28.1096 35.4057 28.0531 35.4876 27.9796C35.5699 27.9067 35.637 27.8183 35.685 27.7194C35.733 27.6205 35.7611 27.5131 35.7675 27.4033C35.7739 27.2936 35.7586 27.1836 35.7225 27.0798C35.6863 26.976 35.63 26.8803 35.5568 26.7983C33.1585 24.0963 29.9607 22.609 26.5575 22.609Z" fill="#00CC00"/>
<path d="M39.4577 22.8815C36.0121 19.1075 31.4342 17.0263 26.5572 17.0263C21.6801 17.0263 17.1023 19.1053 13.6567 22.8815C13.524 23.048 13.4595 23.2587 13.4762 23.4709C13.493 23.6832 13.5898 23.8812 13.747 24.0247C13.9042 24.1683 14.1101 24.2468 14.323 24.2444C14.536 24.2419 14.74 24.1586 14.8938 24.0114C18.0179 20.5858 22.158 18.7011 26.5572 18.7011C30.9564 18.7011 35.0965 20.5858 38.2206 24.0114C38.2948 24.0926 38.3842 24.1585 38.4839 24.2051C38.5835 24.2518 38.6913 24.2783 38.8012 24.2833C38.9111 24.2883 39.021 24.2716 39.1244 24.2341C39.2278 24.1967 39.3229 24.1392 39.4041 24.065C39.4853 23.9908 39.5512 23.9013 39.5978 23.8017C39.6445 23.7021 39.6711 23.5942 39.676 23.4843C39.681 23.3744 39.6643 23.2646 39.6268 23.1612C39.5894 23.0577 39.5319 22.9627 39.4577 22.8815Z" fill="#00CC00"/>
<path d="M26.5571 36.5658C27.0196 36.5658 27.3945 36.1909 27.3945 35.7284C27.3945 35.2659 27.0196 34.891 26.5571 34.891C26.0946 34.891 25.7197 35.2659 25.7197 35.7284C25.7197 36.1909 26.0946 36.5658 26.5571 36.5658Z" fill="#00CC00"/>
<defs>
<filter id="filter0_d_1_121" x="0" y="0" width="53" height="53" filterUnits="userSpaceOnUse" color-interpolation-filters="sRGB">
<feFlood flood-opacity="0" result="BackgroundImageFix"/>
<feColorMatrix in="SourceAlpha" type="matrix" values="0 0 0 0 0 0 0 0 0 0 0 0 0 0 0 0 0 0 127 0" result="hardAlpha"/>
<feOffset/>
<feGaussianBlur stdDeviation="2"/>
<feComposite in2="hardAlpha" operator="out"/>
<feColorMatrix type="matrix" values="0 0 0 0 0 0 0 0 0 0 0 0 0 0 0 0 0 0 0.25 0"/>
<feBlend mode="normal" in2="BackgroundImageFix" result="effect1_dropShadow_1_121"/>
<feBlend mode="normal" in="SourceGraphic" in2="effect1_dropShadow_1_121" result="shape"/>
</filter>
</defs>
</svg>

